<?xml version="1.0" standalone="no"?>
<!DOCTYPE svg PUBLIC "-//W3C//DTD SVG 20010904//EN"
 "http://www.w3.org/TR/2001/REC-SVG-20010904/DTD/svg10.dtd">
<svg version="1.0" xmlns="http://www.w3.org/2000/svg"
 width="32.000000pt" height="32.000000pt" viewBox="0 0 32.000000 32.000000"
 preserveAspectRatio="xMidYMid meet">

<g transform="translate(0.000000,32.000000) scale(0.100000,-0.100000)"
fill="#000000" stroke="none">
<path d="M0 240 c0 -62 3 -78 13 -74 8 3 30 -14 51 -41 21 -25 40 -45 44 -45
4 0 49 47 100 105 51 58 97 103 102 100 6 -4 10 3 10 14 0 20 -5 21 -160 21
l-160 0 0 -80z"/>
<path d="M216 145 c-54 -63 -101 -115 -103 -115 -3 0 -29 26 -59 58 l-54 57 0
-72 0 -73 160 0 160 0 0 130 c0 72 -1 130 -2 130 -2 0 -48 -52 -102 -115z"/>
</g>
</svg>
